<svg xmlns="http://www.w3.org/2000/svg" xmlns:xlink="http://www.w3.org/1999/xlink" width="500" height="372.609" viewBox="0 0 500 372.609">
  <defs>
    <clipPath id="clip-path">
      <rect id="Rectangle_10814" data-name="Rectangle 10814" width="500" height="372.609" fill="none"/>
    </clipPath>
    <clipPath id="clip-path-5">
      <rect id="Rectangle_10705" data-name="Rectangle 10705" width="40.548" height="39.509" fill="none"/>
    </clipPath>
    <clipPath id="clip-path-6">
      <rect id="Rectangle_10610" data-name="Rectangle 10610" width="48.224" height="30.281" fill="none"/>
    </clipPath>
    <clipPath id="clip-path-7">
      <rect id="Rectangle_10611" data-name="Rectangle 10611" width="31.804" height="11.902" fill="none"/>
    </clipPath>
  </defs>
  <g id="Group_22782" data-name="Group 22782" transform="translate(-433 -527.195)">
    <g id="Group_22779" data-name="Group 22779" transform="translate(433 527.195)">
      <g id="Group_22778" data-name="Group 22778" clip-path="url(#clip-path)">
        <rect id="Rectangle_10777" data-name="Rectangle 10777" width="500" height="0.25" transform="translate(0 327.446)" fill="#ebebeb"/>
        <rect id="Rectangle_10778" data-name="Rectangle 10778" width="25.97" height="0.25" transform="translate(396.586 334.256)" fill="#ebebeb"/>
        <rect id="Rectangle_10779" data-name="Rectangle 10779" width="8.693" height="0.25" transform="translate(306.974 336.061)" fill="#ebebeb"/>
        <rect id="Rectangle_10780" data-name="Rectangle 10780" width="19.193" height="0.25" transform="translate(430.708 343.542)" fill="#ebebeb"/>
        <rect id="Rectangle_10781" data-name="Rectangle 10781" width="16.249" height="0.25" transform="translate(52.459 335.936)" fill="#ebebeb"/>
        <rect id="Rectangle_10782" data-name="Rectangle 10782" width="36.833" height="0.25" transform="translate(74.056 335.936)" fill="#ebebeb"/>
        <rect id="Rectangle_10783" data-name="Rectangle 10783" width="93.676" height="0.249" transform="translate(201.658 340.159)" fill="#ebebeb"/>
        <g id="Group_22714" data-name="Group 22714">
          <g id="Group_22713" data-name="Group 22713" clip-path="url(#clip-path)">
            <path id="Path_35387" data-name="Path 35387" d="M237.014,282.847H43.915a5.714,5.714,0,0,1-5.708-5.708V5.708A5.715,5.715,0,0,1,43.915,0h193.1a5.715,5.715,0,0,1,5.707,5.708V277.139a5.714,5.714,0,0,1-5.707,5.708M43.915.25a5.464,5.464,0,0,0-5.458,5.458V277.139a5.464,5.464,0,0,0,5.458,5.458h193.1a5.464,5.464,0,0,0,5.457-5.458V5.708A5.464,5.464,0,0,0,237.014.25Z" fill="#ebebeb"/>
            <path id="Path_35388" data-name="Path 35388" d="M453.311,282.847h-193.1a5.713,5.713,0,0,1-5.707-5.708V5.708A5.714,5.714,0,0,1,260.212,0h193.1a5.715,5.715,0,0,1,5.708,5.708V277.139a5.714,5.714,0,0,1-5.708,5.708M260.212.25a5.463,5.463,0,0,0-5.457,5.458V277.139a5.463,5.463,0,0,0,5.457,5.458h193.1a5.464,5.464,0,0,0,5.458-5.458V5.708A5.464,5.464,0,0,0,453.311.25Z" fill="#ebebeb"/>
            <rect id="Rectangle_10784" data-name="Rectangle 10784" width="25.012" height="159.398" transform="translate(269.667 168.048)" fill="#ebebeb"/>
            <path id="Path_35389" data-name="Path 35389" d="M274.417,327.446h-4.751V305.982H279.4Z" fill="#f5f5f5"/>
            <rect id="Rectangle_10785" data-name="Rectangle 10785" width="25.012" height="159.398" transform="translate(412.376 168.048)" fill="#ebebeb"/>
            <rect id="Rectangle_10786" data-name="Rectangle 10786" width="146.855" height="146.227" transform="translate(269.667 168.048)" fill="#f5f5f5"/>
            <path id="Path_35390" data-name="Path 35390" d="M411.64,288.008H368.106a.573.573,0,0,1-.574-.573V175.075a.573.573,0,0,1,.574-.573h8.04a.572.572,0,0,1,.478.257,14.586,14.586,0,0,0,3.882,4.09,8.843,8.843,0,0,0,5.061,1.662h8.612c3.327,0,6.5-2.043,8.943-5.752a.573.573,0,0,1,.479-.257h8.039a.573.573,0,0,1,.573.573v112.36a.573.573,0,0,1-.573.573m-42.961-1.146h42.388V175.648h-7.161c-2.637,3.878-6.082,6.01-9.727,6.01h-8.612a9.97,9.97,0,0,1-5.708-1.862,15.572,15.572,0,0,1-4.019-4.148h-7.161Z" fill="#e6e6e6"/>
            <path id="Path_35391" data-name="Path 35391" d="M364.859,288.008H321.325a.572.572,0,0,1-.573-.573V175.075a.572.572,0,0,1,.573-.573h7.6a.574.574,0,0,1,.479.257,14.532,14.532,0,0,0,3.881,4.089,8.842,8.842,0,0,0,5.062,1.663h8.613c3.321,0,6.494-2.042,8.933-5.751a.572.572,0,0,1,.479-.258h8.485a.573.573,0,0,1,.573.573v112.36a.573.573,0,0,1-.573.573M321.9,286.862h42.388V175.648H356.68c-2.637,3.878-6.079,6.01-9.718,6.01h-8.613a9.975,9.975,0,0,1-5.708-1.862,15.457,15.457,0,0,1-4.019-4.148H321.9Z" fill="#e6e6e6"/>
            <path id="Path_35392" data-name="Path 35392" d="M318.079,288.008H274.545a.572.572,0,0,1-.573-.573V175.075a.572.572,0,0,1,.573-.573h7.6a.574.574,0,0,1,.479.257,14.589,14.589,0,0,0,3.883,4.09,8.838,8.838,0,0,0,5.06,1.662h8.612c3.328,0,6.5-2.043,8.944-5.752a.571.571,0,0,1,.478-.257h8.476a.573.573,0,0,1,.573.573v112.36a.573.573,0,0,1-.573.573m-42.961-1.146h42.388V175.648h-7.6c-2.638,3.878-6.082,6.01-9.728,6.01h-8.612a9.975,9.975,0,0,1-5.708-1.862,15.572,15.572,0,0,1-4.019-4.148h-6.724Z" fill="#e6e6e6"/>
            <path id="Path_35393" data-name="Path 35393" d="M411.771,327.446h4.751V305.982H406.79Z" fill="#f5f5f5"/>
            <path id="Path_35394" data-name="Path 35394" d="M392.31,168.047H370.746a4.856,4.856,0,0,1-4.856-4.856V137.675a4.856,4.856,0,0,1,4.856-4.856H392.31a4.856,4.856,0,0,1,4.856,4.856v25.516a4.856,4.856,0,0,1-4.856,4.856" fill="#ebebeb"/>
            <path id="Path_35395" data-name="Path 35395" d="M406.986,168.047H390.4a3.735,3.735,0,0,1-3.735-3.735V144.686a3.735,3.735,0,0,1,3.735-3.735h16.587a3.735,3.735,0,0,1,3.735,3.735v19.626a3.735,3.735,0,0,1-3.735,3.735" fill="#f5f5f5"/>
            <path id="Path_35396" data-name="Path 35396" d="M282.172,159.214s.771,8.833,30.336,8.833,30.335-8.833,30.335-8.833Z" fill="#f0f0f0"/>
            <rect id="Rectangle_10787" data-name="Rectangle 10787" width="235.433" height="93.94" transform="translate(168.393 18.411)" fill="#f0f0f0"/>
            <rect id="Rectangle_10788" data-name="Rectangle 10788" width="249.067" height="93.94" transform="translate(151.896 18.411)" fill="#f5f5f5"/>
            <rect id="Rectangle_10789" data-name="Rectangle 10789" width="234.261" height="79.134" transform="translate(159.298 25.814)" fill="#fff"/>
            <path id="Path_35397" data-name="Path 35397" d="M149.2,288.355h-9.351c.069-8.079-.023-49.346-.659-96.311-.578-43.53-1.618-60.973-2.5-67.631l7.525,12.661c2.612,9.894,6.959,26.836,7.328,37.239,1.18,32.747-3.409,79.677-2.346,114.042" fill="#e6e6e6"/>
            <path id="Path_35398" data-name="Path 35398" d="M156.3,131.078c12.472-23.546,37.372-35.832,62.821-47.4,9.992-4.542-18.052,51.795-38.44,77.334-15.838,19.839-31.148,19.4-35.749,39.006-.881-22.763.622-48.653,11.368-68.941" fill="#e6e6e6"/>
            <path id="Path_35399" data-name="Path 35399" d="M132.628,170.908C121.577,156.99,103.385,153.42,84.9,150.462c-7.257-1.161,17.97,32.5,34.591,46.219,12.912,10.657,23.205,7.274,28.5,20.027-1.942-16.053-5.844-33.808-15.366-45.8" fill="#e6e6e6"/>
            <path id="Path_35400" data-name="Path 35400" d="M154.88,197.522c8.587-10.815,22.723-13.589,37.085-15.887,5.638-.9-13.964,25.254-26.879,35.913-10.033,8.281-18.032,5.653-22.146,15.563,1.509-12.474,4.541-26.271,11.94-35.589" fill="#e6e6e6"/>
            <path id="Path_35401" data-name="Path 35401" d="M137.206,239.913c-5.916-7.308-15.558-9.106-25.351-10.579-3.845-.578,9.669,17.1,18.531,24.279,6.884,5.574,12.313,3.733,15.178,10.454-1.108-8.483-3.261-17.857-8.358-24.154" fill="#e6e6e6"/>
            <path id="Path_35402" data-name="Path 35402" d="M142.785,131.96c-6.9-23.085-34.123-59.075-62.138-66.474-11-2.906,28.533,55.509,42.074,84.582,10.542,22.634,20.453,36.373,21.855,52.59,6.992-20.388,5.1-47.613-1.791-70.7" fill="#e6e6e6"/>
            <path id="Path_35403" data-name="Path 35403" d="M142.065,327.446h0c16.136,0,29.47-2.391,30.4-18.5l2.689-27.523H108.979l2.69,27.523c.926,16.11,14.26,18.5,30.4,18.5" fill="#f0f0f0"/>
            <path id="Path_35404" data-name="Path 35404" d="M104.7,287.033h74.74l2.141-15.24H102.555Z" fill="#f0f0f0"/>
          </g>
        </g>
        <g id="Group_22716" data-name="Group 22716">
          <g id="Group_22715" data-name="Group 22715" clip-path="url(#clip-path)">
            <path id="Path_35405" data-name="Path 35405" d="M443.889,361.286c0,6.254-86.807,11.323-193.889,11.323S56.111,367.54,56.111,361.286,142.918,349.963,250,349.963s193.889,5.07,193.889,11.323" fill="#f5f5f5"/>
          </g>
        </g>
        <g id="Group_22745" data-name="Group 22745">
          <g id="Group_22744" data-name="Group 22744" clip-path="url(#clip-path)">
            <path id="Path_35413" data-name="Path 35413" d="M382.681,270.95H173.57a8.614,8.614,0,0,1-8.676-9.04l5.892-146.391a9.493,9.493,0,0,1,9.4-9.04H389.3a8.616,8.616,0,0,1,8.677,9.04L392.085,261.91a9.493,9.493,0,0,1-9.4,9.04" fill="#fff"/>
            <path id="Path_35414" data-name="Path 35414" d="M382.68,271.45H173.57a9.115,9.115,0,0,1-9.177-9.561L170.286,115.5a10.011,10.011,0,0,1,9.9-9.52H389.3a9.115,9.115,0,0,1,9.176,9.561L392.585,261.93a10.012,10.012,0,0,1-9.9,9.52M180.19,106.978a9,9,0,0,0-8.9,8.561L165.393,261.93a8.114,8.114,0,0,0,8.177,8.52H382.68a9,9,0,0,0,8.9-8.561L397.477,115.5a8.116,8.116,0,0,0-8.176-8.52Z" fill="#407bff"/>
            <path id="Path_35415" data-name="Path 35415" d="M383.409,114.509H185.437a6.693,6.693,0,0,0-6.63,6.373L174.021,239.8H384.739l4.786-118.915a6.072,6.072,0,0,0-6.116-6.373" fill="#cdf"/>
            <path id="Path_35419" data-name="Path 35419" d="M392.975,240.3H165.785a.5.5,0,1,1,0-1h227.19a.5.5,0,0,1,0,1" fill="#407bff"/>
            <g id="Group_22780" data-name="Group 22780" transform="translate(257.861 160.143)" opacity="0.5">
              <g id="Group_12513" data-name="Group 12513">
                <g id="Group_12512" data-name="Group 12512" clip-path="url(#clip-path-5)">
                  <path id="Path_34816" data-name="Path 34816" d="M234.095,333.926l-4.66,5-35.888-32.285,4.66-5Z" transform="translate(-193.547 -300.532)" fill="#fff"/>
                  <path id="Path_34817" data-name="Path 34817" d="M228.832,299.508l5.15,4.633L201.51,339.017l-5.15-4.633Z" transform="translate(-194.897 -299.508)" fill="#fff"/>
                </g>
              </g>
            </g>
          </g>
        </g>
      </g>
    </g>
    <g id="Group_22781" data-name="Group 22781" transform="translate(500.107 16.943)">
      <path id="Path_34002" data-name="Path 34002" d="M347.379,302.739l-11.331,13.854s-17.887-6.864-20.23-4.508L341.89,335.02l18.541-20.862Z" transform="translate(-88.642 543.26)" fill="#080153"/>
      <path id="Path_34009" data-name="Path 34009" d="M353.568,313.4c-.048.052.389.576,1.321,1.15a7.857,7.857,0,0,0,1.748.787,8.212,8.212,0,0,0,1.108.264,2.156,2.156,0,0,0,.669.04.745.745,0,0,0,.659-.631.937.937,0,0,0-.3-.787,2.284,2.284,0,0,0-.553-.366,6.288,6.288,0,0,0-1.064-.439,6.193,6.193,0,0,0-1.913-.271,2.916,2.916,0,0,0-1.712.388c.021.093.67-.047,1.7.032a6.989,6.989,0,0,1,1.755.371,6.544,6.544,0,0,1,.96.431c.342.172.58.378.543.564-.016.07-.029.092-.159.122a1.764,1.764,0,0,1-.491-.032,9.069,9.069,0,0,1-1.044-.214,9.685,9.685,0,0,1-1.7-.631,12.1,12.1,0,0,0-1.522-.781" transform="translate(-101.422 539.733)" fill="#263238"/>
      <path id="Path_34010" data-name="Path 34010" d="M353.5,311.337c.027.06.687-.176,1.464-.965a5.668,5.668,0,0,0,1.454-2.69,1.45,1.45,0,0,0-.255-1.4.819.819,0,0,0-.872-.116,2.37,2.37,0,0,0-.56.364,3.9,3.9,0,0,0-.779.885,4.034,4.034,0,0,0-.634,1.852,2.258,2.258,0,0,0,.364,1.722,14.371,14.371,0,0,1,.052-1.667,4.042,4.042,0,0,1,.672-1.6,3.609,3.609,0,0,1,.693-.739c.287-.243.59-.376.668-.255a1,1,0,0,1,.081.835,5.79,5.79,0,0,1-.3,1,6.314,6.314,0,0,1-.9,1.536c-.643.8-1.2,1.162-1.149,1.243" transform="translate(-101.348 542.125)" fill="#263238"/>
      <path id="Path_34011" data-name="Path 34011" d="M411.286,321.595a39.231,39.231,0,0,1-11.978,1.971c-5.421-.159-17.243,2.1-16.395,9.118.946,7.827,16.611,3.981,22.664,1.994s12.095-3.853,12.095-3.853Z" transform="translate(-111.369 536.868)" fill="#080153"/>
      <path id="Path_34019" data-name="Path 34019" d="M384.46,336.956c.018-.024-.213-.2-.53-.6a6.408,6.408,0,0,1-1.016-1.9,3.884,3.884,0,0,1-.22-1.442,5.993,5.993,0,0,1,.392-1.645,7.789,7.789,0,0,1,2.326-3.093,10.9,10.9,0,0,1,3.436-1.877,21.368,21.368,0,0,1,3.139-.8c.91-.167,1.654-.276,2.167-.36a3.773,3.773,0,0,0,.793-.162,3.614,3.614,0,0,0-.81.03c-.518.044-1.268.117-2.191.254a19.264,19.264,0,0,0-3.2.739,10.8,10.8,0,0,0-3.553,1.911,7.907,7.907,0,0,0-2.4,3.243,6.083,6.083,0,0,0-.381,1.743,4.019,4.019,0,0,0,.274,1.537,5.9,5.9,0,0,0,1.143,1.908,1.88,1.88,0,0,0,.631.516" transform="translate(-111.213 535.693)" fill="#263238"/>
      <path id="Path_34020" data-name="Path 34020" d="M423.558,306.054s16.436-25.533,20.6-26.809,11.567-2.275,17.808,0,24.236,9.908,24.236,9.908l11.35,3.777a28.828,28.828,0,0,1,19.226,22.006s-14.332,11.781-25.175,9.708-40.365-15.356-40.365-15.356c-3.148,1.872-8.3,2.691-10.654,3.7A62.371,62.371,0,0,1,430.4,316.6Z" transform="translate(-125.159 551.683)" fill="#1a0f91"/>
      <path id="Path_34024" data-name="Path 34024" d="M350.512,279.073s48.14-52.267,50.817-53.727c1.227-.669,8.391-7.752,10.2-7.763a10.557,10.557,0,0,1,6.627,2.3l30.854,29.372,9.06,19.731-19.21,10.35-26.007-22.505-44.834,36.7Z" transform="translate(-100.401 572.122)" fill="#1a0f91"/>
      <path id="Path_34026" data-name="Path 34026" d="M444.883,226.234l-40.515-12.882a5.1,5.1,0,0,1-3.426-5.98l1.144-5.06,34.365,1.739,29.07-20.581A14.482,14.482,0,0,1,471.553,181l5.759-.941L495.041,175l19.69,19.626a8.888,8.888,0,0,1,2.654,6l.907,23.355a69.778,69.778,0,0,1-.393,10.583L514.124,267.8s-1.058,17.1-8.464,14.459c0,0-8.328-15.969-17.85-21.788s-22.881-10.48-22.881-10.48l2.082-31.717-.276-6.736Z" transform="translate(-117.451 586.557)" fill="#4042e2"/>
      <path id="Path_34027" data-name="Path 34027" d="M443,235.692a2.781,2.781,0,0,1-.155-.691,14.976,14.976,0,0,1-.192-1.921,20.137,20.137,0,0,1,.079-2.866,22.609,22.609,0,0,1,.644-3.454,21.28,21.28,0,0,1,2.589-5.813,15.949,15.949,0,0,1,1.13-1.565,2.79,2.79,0,0,1,.478-.522c.05.038-.574.828-1.4,2.215a23.871,23.871,0,0,0-2.464,5.776,24.813,24.813,0,0,0-.66,3.4,23.318,23.318,0,0,0-.151,2.826c.016,1.614.166,2.61.1,2.618" transform="translate(-131.625 571.69)" fill="#fafafa"/>
      <path id="Path_34029" data-name="Path 34029" d="M397.911,194.836l1.617-.526a1.646,1.646,0,0,1,.879-.042c1.848.419,8.98,2.039,11.7,2.675a2.4,2.4,0,0,1,1.623,1.314l10.991,22.91a1.526,1.526,0,0,1-.312,1.753Z" transform="translate(-116.467 580.038)" fill="#91b3fa"/>
      <path id="Path_34030" data-name="Path 34030" d="M397.911,195.148,409.98,219.5l14.427,3.863-12.292-24.047a2.06,2.06,0,0,0-1.351-1.067Z" transform="translate(-116.467 579.727)" fill="#7d97f4"/>
      <path id="Path_34031" data-name="Path 34031" d="M395.35,204c.284-.385-2.488-13.238-1.688-13.594s1.172-.212,1.7.561,3.7,8.345,3.7,8.345l1.394-.519a2.384,2.384,0,0,1,1.17-.128c2.1.3,8.962,1.3,8.922,1.6,0,0,.134,2.653-2.265,2.121l3.395,1.08s1.154,1.964-.9,2.287h-2.359l3.685.712s-.365,2.034-1.7,2.17a33.533,33.533,0,0,1-4.928-.374l-.824,1.809,3.846,7.761-6.477-2.192s-3.465-1.777-3.2-3.554c0,0-2.488-1.422-2.488-3.377,0,0-2.488-2.665-.977-4.709" transform="translate(-114.977 581.394)" fill="#ffb339"/>
      <path id="Path_34032" data-name="Path 34032" d="M398.566,209.13c.036.042.559-.405,1.51-.96a12.44,12.44,0,0,1,1.729-.843,5.8,5.8,0,0,1,2.264-.452,19.451,19.451,0,0,1,4.248.59,16.133,16.133,0,0,0,1.75.405,6.662,6.662,0,0,0-1.688-.639,15.99,15.99,0,0,0-4.309-.7,5.8,5.8,0,0,0-2.38.5,10.614,10.614,0,0,0-1.74.929,5.1,5.1,0,0,0-1.382,1.166" transform="translate(-116.688 575.868)" fill="#aa6550"/>
      <path id="Path_34033" data-name="Path 34033" d="M402.121,214.15a13.533,13.533,0,0,1,.965-1.127,3.409,3.409,0,0,1,1.326-.8,5.6,5.6,0,0,1,1.923-.048c1.38.2,2.635.533,3.547.7a6.521,6.521,0,0,0,1.466.228,5.382,5.382,0,0,0-1.411-.463,32.42,32.42,0,0,0-3.562-.8,5.485,5.485,0,0,0-2.052.085,3.41,3.41,0,0,0-1.408.929,2.722,2.722,0,0,0-.8,1.3" transform="translate(-117.892 574.088)" fill="#aa6550"/>
      <path id="Path_34034" data-name="Path 34034" d="M396.578,208.128a5.139,5.139,0,0,0,.51-1.1,6.813,6.813,0,0,1,1.517-2.384,6.486,6.486,0,0,1,2.511-1.286,5.112,5.112,0,0,0,1.146-.395,3.752,3.752,0,0,0-1.208.161,5.785,5.785,0,0,0-2.68,1.268,6.043,6.043,0,0,0-1.511,2.549,3.81,3.81,0,0,0-.284,1.186" transform="translate(-116.011 577.082)" fill="#aa6550"/>
      <path id="Path_34035" data-name="Path 34035" d="M439.708,219.4l-10.549-11.048-8.712-3.106-2.7,1.029-6.32-1.224a1.144,1.144,0,0,0-1.187,1.752.605.605,0,0,0,.206.185c.606.3,8.864,2.954,8.864,2.954l-10.606-.834s-1.128.547-.219,1.38,4.489,1.819,6.815,2.272a27.232,27.232,0,0,1,4.114,1.663s-8.816,1.5-8.741,2.185-.076.984.682,1.06,8.182-.227,9.318.076,5.076,5.606,7.2,6.742a4.816,4.816,0,0,0,4.242,0l1.97,2.121,4.848-6.743" transform="translate(-119.931 576.377)" fill="#ffb339"/>
      <path id="Path_34036" data-name="Path 34036" d="M438.845,219.789a.588.588,0,0,0-.091.106l-.25.327-.958,1.294-3.621,4.965.135-.009-1.961-2.13a.1.1,0,0,0-.115-.022l-.006,0a4.887,4.887,0,0,1-3.047.387,4.155,4.155,0,0,1-1.532-.682,13.448,13.448,0,0,1-1.366-1.175c-.886-.863-1.758-1.823-2.673-2.815-.458-.5-.926-1-1.425-1.5a8.513,8.513,0,0,0-.8-.717l-.229-.163-.28-.129a4.024,4.024,0,0,0-.559-.078c-1.461-.1-2.952-.067-4.491-.056l-2.336.036-1.189.015a3.3,3.3,0,0,1-1.118-.095c-.12-.051-.139-.188-.154-.4l-.019-.307c0-.038-.018-.139-.007-.125-.02.048.01,0,.027-.011a4.538,4.538,0,0,1,1.089-.429c.786-.23,1.6-.418,2.423-.6,1.648-.358,3.342-.677,5.066-.976a.167.167,0,0,0,.137-.191.17.17,0,0,0-.092-.123c-.9-.435-1.817-.855-2.771-1.232a8.771,8.771,0,0,0-1.488-.469c-.5-.1-1-.212-1.5-.333-1-.244-2.008-.521-3-.862a12.457,12.457,0,0,1-1.448-.588,3.307,3.307,0,0,1-.64-.4.8.8,0,0,1-.334-.54c-.013-.227.229-.463.474-.591l-.088.017,10.606.83a.167.167,0,0,0,.064-.326l-4.757-1.542-2.306-.764-1.13-.387c-.184-.065-.376-.133-.546-.2a.456.456,0,0,1-.2-.116,1.212,1.212,0,0,1-.141-.2.919.919,0,0,1,.092-.944,1.042,1.042,0,0,1,.858-.441c.707.107,1.483.277,2.207.41l4.283.821a.146.146,0,0,0,.079-.007l2.7-1.035h-.1l8.72,3.083-.044-.029,7.783,8.076,2.1,2.16.55.553a1.624,1.624,0,0,0,.2.18,1.606,1.606,0,0,0-.171-.2l-.527-.575-2.06-2.2-7.708-8.148a.123.123,0,0,0-.045-.029l-8.7-3.129a.138.138,0,0,0-.1,0l-2.7,1.025.079-.007-4.28-.836c-.745-.137-1.448-.3-2.255-.421a1.353,1.353,0,0,0-1.122.569,1.237,1.237,0,0,0-.118,1.271,1.445,1.445,0,0,0,.2.28.757.757,0,0,0,.3.186c.2.08.377.143.566.212l1.134.391,2.307.769,4.756,1.549.065-.326-10.605-.836h-.006a.146.146,0,0,0-.083.017,1.54,1.54,0,0,0-.442.34.845.845,0,0,0-.223.561,1.114,1.114,0,0,0,.453.8,3.61,3.61,0,0,0,.71.444,12.831,12.831,0,0,0,1.489.6c1,.346,2.018.625,3.029.87.506.122,1.011.236,1.518.335a8.474,8.474,0,0,1,1.432.451c.939.37,1.855.788,2.747,1.217l.046-.314c-1.731.3-3.426.625-5.08.987-.827.183-1.643.373-2.445.609a4.579,4.579,0,0,0-1.193.486c-.051.06-.118.075-.146.231a.749.749,0,0,0,.007.178l.019.3a1.393,1.393,0,0,0,.056.341.535.535,0,0,0,.268.312,3.313,3.313,0,0,0,1.265.128l1.193-.018,2.335-.043c1.533-.017,3.033-.054,4.461.039a3.893,3.893,0,0,1,.511.067l.208.1.207.148a8.191,8.191,0,0,1,.777.688c.494.488.963.99,1.423,1.482.919.987,1.8,1.946,2.7,2.812a13.71,13.71,0,0,0,1.4,1.191,4.39,4.39,0,0,0,1.622.708,5.079,5.079,0,0,0,3.189-.43l-.121-.02,1.979,2.112a.088.088,0,0,0,.124.006l.012-.014,3.554-5.014.921-1.319.231-.341a.671.671,0,0,0,.071-.12" transform="translate(-119.844 576.456)" fill="#aa6550"/>
      <path id="Path_34037" data-name="Path 34037" d="M427.6,208.8a10.258,10.258,0,0,0-1.655-.675c-1.046-.384-2.513-.9-4.185-1.472l-.02-.006-1.246-.256c-2.028-.414-3.867-.77-5.2-1.011a14.022,14.022,0,0,0-2.174-.321,13.99,13.99,0,0,0,2.126.557c1.323.3,3.155.695,5.182,1.109l1.247.252-.02-.005c1.676.558,3.157,1.035,4.221,1.363a10.369,10.369,0,0,0,1.726.465" transform="translate(-121.62 576.371)" fill="#aa6550"/>
      <path id="Path_34038" data-name="Path 34038" d="M510.343,210.1l-28.427,24.642-29.278-16.756s-9.235,4.892-7.272,13.061l25.914,20.519a21.175,21.175,0,0,0,25.746.414l9.9-7.336,22.455-18.849s3.7-11.99-4.408-15.693a16.921,16.921,0,0,0-14.635,0" transform="translate(-132.458 575.218)" fill="#4042e2"/>
      <path id="Path_34041" data-name="Path 34041" d="M499.154,204.265a7.323,7.323,0,0,0,.026,1.144c.043.791.1,1.84.169,3.11.141,2.626.292,6.256.408,10.268.106,3.988.2,7.594.276,10.277.046,1.273.085,2.323.114,3.115a7.3,7.3,0,0,0,.09,1.141,7.414,7.414,0,0,0,.043-1.144c0-.793,0-1.844-.005-3.116-.019-2.632-.062-6.268-.176-10.283s-.306-7.648-.508-10.273c-.1-1.313-.2-2.374-.278-3.106a7.423,7.423,0,0,0-.159-1.134" transform="translate(-150.778 576.636)" fill="#263238"/>
      <path id="Path_34042" data-name="Path 34042" d="M502.031,188.205a3.785,3.785,0,0,0-.807.984,14.137,14.137,0,0,0-2.21,5.693,3.773,3.773,0,0,0-.068,1.271,42.748,42.748,0,0,1,1.18-4.115c.846-2.207,1.994-3.773,1.905-3.833" transform="translate(-150.702 582.08)" fill="#263238"/>
      <g id="Group_10940" data-name="Group 10940" transform="translate(347.386 803.396)" opacity="0.3">
        <g id="Group_10939" data-name="Group 10939">
          <g id="Group_10938" data-name="Group 10938" clip-path="url(#clip-path-6)">
            <path id="Path_34060" data-name="Path 34060" d="M497.663,265.623c5.984,3.927,13.987,3.619,20.62.931s12.183-7.447,17.526-12.21c4.175-3.72,8.5-7.8,9.923-13.212.253-.96.286-2.219-.589-2.688-.914-.491-1.963.311-2.7,1.043-6.943,6.9-14.861,12.721-22.746,18.517a55.624,55.624,0,0,1-9.677,6.136,18.678,18.678,0,0,1-11.165,1.713" transform="translate(-497.663 -238.294)"/>
          </g>
        </g>
      </g>
      <g id="Group_10943" data-name="Group 10943" transform="translate(317.141 792.438)" opacity="0.3">
        <g id="Group_10942" data-name="Group 10942">
          <g id="Group_10941" data-name="Group 10941" clip-path="url(#clip-path-7)">
            <path id="Path_34061" data-name="Path 34061" d="M474.412,233.618l8.4-5.858a2.382,2.382,0,0,0,.785-.752.815.815,0,0,0-.12-1,17.5,17.5,0,0,1-21.3-.149,34.789,34.789,0,0,0-4.278-3.324,5.094,5.094,0,0,0-5.156-.2l-.834.456,1.123.749,2-1.2Z" transform="translate(-451.909 -221.716)"/>
          </g>
        </g>
      </g>
      <path id="Path_34062" data-name="Path 34062" d="M519.677,173.392h0a9.694,9.694,0,0,1-11.437-8.373c-.219-1.842-.371-3.179-.371-3.179s-7.823.3-9.4-7.274-3.654-25.263-3.654-25.263a26.881,26.881,0,0,1,27.161-1.833l1.294.647,4.208,34.586a9.691,9.691,0,0,1-7.806,10.69" transform="translate(-149.313 603.627)" fill="#ffb339"/>
      <path id="Path_34063" data-name="Path 34063" d="M514.561,178.431a18.687,18.687,0,0,0,9.316-4.848s-1.353,5.926-9.061,6.718Z" transform="translate(-156.004 587.036)" fill="#aa6550"/>
      <path id="Path_34064" data-name="Path 34064" d="M538.768,141.736c.118-.081,4.916-2.56,5.761,2.663s-4.572,4.994-4.605,4.846-1.156-7.509-1.156-7.509" transform="translate(-164.209 598.054)" fill="#ffb339"/>
      <path id="Path_34065" data-name="Path 34065" d="M542.323,147.843c.021-.02.1.049.266.095a.92.92,0,0,0,.682-.1,2.281,2.281,0,0,0,.715-2.189,3.037,3.037,0,0,0-.465-1.261,1.066,1.066,0,0,0-.8-.588.469.469,0,0,0-.5.336c-.046.157,0,.256-.023.27s-.126-.069-.119-.292a.585.585,0,0,1,.152-.36.694.694,0,0,1,.482-.214,1.3,1.3,0,0,1,1.082.656,3.132,3.132,0,0,1,.551,1.4,2.393,2.393,0,0,1-.962,2.47.987.987,0,0,1-.855,0c-.183-.1-.229-.215-.212-.227" transform="translate(-165.334 597.218)" fill="#aa6550"/>
      <path id="Path_34066" data-name="Path 34066" d="M487.749,120.224a2.857,2.857,0,0,1,.547-2.706,2.025,2.025,0,0,1,2.613-.309,2.364,2.364,0,0,1,1.446-3.2c1.223-.32,2.462.41,3.722.5a5.743,5.743,0,0,0,3.465-1.1c1.035-.672,1.963-1.5,3.02-2.138a9.891,9.891,0,0,1,13.527,3.281,4.39,4.39,0,0,1,4.908.84,7.2,7.2,0,0,1,2.053,4.77,16.148,16.148,0,0,1-.2,3.576c.019.1.047.191.065.29.734,4.19,1.218,9.184-.558,9.559-3.1.652-3.5-5.341-3.5-5.341-4.1-.729-3.789-6.714-4.91-7.394s-3.506-2.3-10.688,3.326A15.736,15.736,0,0,1,494,127.049c-.069,0-.138,0-.206,0h-.048c-.026,0-.046-.011-.071-.014a7.308,7.308,0,0,1-2.215-.469,4.114,4.114,0,0,1-2.051-1.546,2.253,2.253,0,0,1-.028-2.461,4.953,4.953,0,0,1-1.629-2.334" transform="translate(-146.875 608.634)" fill="#080153"/>
    </g>
  </g>
</svg>